PathFileType	4	(X/Y/Z)	\\Move.snu.ac.kr\motion\Animal\091204_091205_Bird\091205_bird\Project 2\Capture day 2\Session 1\pigeon_008.trc
DataRate	CameraRate	NumFrames	NumMarkers	Units	OrigDataRate	OrigDataStartFrame	OrigNumFrames
240.0	240.0	21	14	mm	240.0	243	3164
Frame#	Time	14MarkersBird:Head			14MarkersBird:C_back			14MarkersBird:Spine			14MarkersBird:L-shoulder			14MarkersBird:L-elbow			14MarkersBird:L-wrist			14MarkersBird:L-hand			14MarkersBird:R-shoulder			14MarkersBird:R-elbow			14MarkersBird:R-Wrist			14MarkersBird:R-hand			14MarkersBird:C_Tail			14MarkersBird:L-Tale			14MarkersBird:R-Tale			
		X1	Y1	Z1	X2	Y2	Z2	X3	Y3	Z3	X4	Y4	Z4	X5	Y5	Z5	X6	Y6	Z6	X7	Y7	Z7	X8	Y8	Z8	X9	Y9	Z9	X10	Y10	Z10	X11	Y11	Z11	X12	Y12	Z12	X13	Y13	Z13	X14	Y14	Z14	

2287	9.525	1091.64026	245.31238	2018.09351	1032.27222	249.43051	2016.00977	964.06378	244.78635	2024.61133	1059.72913	242.58022	1994.12500	1033.91907	266.57431	1987.16980	1044.95032	284.92783	1949.52490	1036.50525	310.01028	1937.35730	1061.68152	243.58615	2038.15405	1040.68286	271.17596	2039.45532	1054.27185	292.28387	2074.67505	1047.03992	328.77512	2090.91260	869.85907	179.91745	2007.76636	949.13055	210.77176	1925.36328	940.71075	210.54430	2120.90601	
2288	9.529	1105.71094	242.70891	2017.58777	1045.75928	246.49495	2015.46765	978.68207	242.04393	2024.58020	1073.62939	239.77654	1993.63452	1047.88184	260.41418	1981.58691	1059.84473	272.37854	1941.64941	1053.24463	294.41891	1923.65698	1076.09424	239.99928	2038.20691	1054.78918	265.85043	2044.89575	1070.56543	280.68082	2082.37817	1068.19653	312.74179	2105.86426	883.91675	176.97919	2008.30908	962.60504	205.32602	1925.37939	953.73181	204.66336	2119.49585	
2289	9.533	1119.83325	240.44453	2016.97510	1059.41895	243.83977	2014.74207	994.01581	239.39529	2024.19629	1087.63977	237.02980	1993.03625	1062.46985	253.29596	1975.79211	1076.45544	257.71680	1935.38293	1071.76917	275.17117	1912.59094	1090.68311	236.46724	2038.09705	1069.86023	259.41003	2050.07129	1088.36511	267.21069	2088.33203	1090.95337	292.76904	2118.03613	898.63538	173.12160	2008.50708	976.53442	199.46117	1925.33228	967.43463	198.74564	2118.08496	
2290	9.538	1134.03699	238.46628	2016.24170	1073.29565	241.50899	2013.84326	1009.92310	236.86771	2023.37854	1101.79480	234.34782	1992.27161	1077.84009	245.50655	1970.52002	1094.83191	241.73680	1931.80444	1092.44543	253.42027	1905.64502	1105.35706	233.19719	2037.77222	1086.13110	252.24068	2054.58105	1107.44397	252.31839	2091.53882	1114.90552	269.90063	2125.51855	913.98657	168.55460	2008.48682	990.72778	193.77386	1925.29773	981.98126	193.45819	2116.92700	
2291	9.542	1148.37671	236.69455	2015.38538	1087.40857	239.52132	2012.83435	1026.27063	234.48703	2022.04980	1116.11023	231.76160	1991.37769	1093.90698	237.25500	1966.39929	1114.56042	225.67119	1931.52637	1115.11060	230.62581	1903.78992	1120.03772	230.33353	2037.14600	1103.28210	244.68835	2057.84888	1127.18298	236.74150	2091.36499	1139.27356	245.49860	2127.06958	929.89990	163.62244	2008.59399	1004.77100	188.77504	1925.40588	997.14545	189.50728	2116.24365	
2292	9.546	1162.87769	235.07610	2014.42786	1101.74731	237.85185	2011.80286	1042.87671	232.28928	2020.24182	1130.58008	229.36154	1990.43250	1110.32690	228.91081	1963.78687	1134.91272	210.96596	1934.49170	1138.96619	208.49954	1907.55652	1134.76038	227.98822	2036.23682	1120.78894	237.05693	2059.45703	1146.89209	221.58620	2087.75732	1163.15991	221.42931	2122.49292	946.28448	158.62448	2009.15784	1018.29755	184.65828	1925.81311	1012.57104	187.25874	2116.06372	
2293	9.550	1177.52966	233.53824	2013.41162	1116.28003	236.42905	2010.81250	1059.51331	230.29192	2018.17139	1145.18604	227.22964	1989.49438	1126.65955	221.01326	1962.66626	1155.12085	198.95836	1939.96631	1162.72229	189.06462	1916.66553	1149.58447	226.16454	2035.15063	1138.08838	229.83257	2059.45410	1166.01550	208.24768	2081.22852	1185.71118	199.79271	2112.56494	962.97998	153.79073	2010.33984	1031.25500	181.15210	1926.55396	1028.01648	186.47647	2116.17969	
2294	9.554	1192.29663	232.00795	2012.39380	1130.97925	235.14777	2009.86328	1075.86169	228.46504	2016.26306	1159.92529	225.34750	1988.54431	1142.46484	214.10457	1962.65137	1174.54663	190.58948	1946.78271	1185.04846	174.32040	1929.57190	1164.49121	224.70232	2034.00378	1154.61353	223.56979	2058.32959	1184.32947	198.20464	2072.78638	1206.30969	182.46294	2098.89185	979.73083	149.34779	2012.07275	1044.00427	177.60994	1927.53247	1043.40686	186.38577	2116.32080	
2295	9.558	1207.20398	230.38788	2011.37732	1145.86316	233.88116	2008.91187	1091.74756	226.66862	2014.84033	1174.81750	223.62550	1987.51941	1157.42236	208.58727	1963.15991	1192.76941	186.29402	1953.38037	1205.25623	165.69724	1943.43591	1179.47620	223.37886	2032.87732	1170.00647	218.70911	2056.76758	1201.83740	192.50197	2063.78003	1224.75098	170.65387	2083.72876	996.28723	145.49429	2014.07874	1057.06787	173.42407	1928.66199	1058.78943	185.94504	2116.27905	
2296	9.563	1222.31433	228.58427	2010.32336	1161.00317	232.48528	2007.93213	1107.24719	224.71947	2013.86426	1189.90479	221.96545	1986.39697	1171.39771	204.80087	1963.51892	1209.52966	185.82349	1958.20630	1223.40588	163.24625	1955.03882	1194.58179	222.01874	2031.81506	1184.27319	215.49309	2055.34229	1218.38184	191.20990	2055.84521	1241.31738	164.48929	2069.61548	1012.52094	142.28192	2016.02271	1070.82825	168.39143	1929.90442	1074.26172	184.26497	2115.90576	
2297	9.567	1237.68018	226.54884	2009.22058	1176.48096	230.80736	2006.96240	1122.62170	222.53340	2013.12231	1205.20227	220.25497	1985.22900	1184.42139	202.94611	1963.25989	1224.71326	188.18686	1960.31409	1239.74658	165.37390	1962.07031	1209.86194	220.52864	2030.82544	1197.59937	214.02626	2054.34937	1233.59937	193.39445	2050.42310	1256.33008	163.18451	2058.84448	1028.49463	139.58168	2017.61670	1085.26721	162.80115	1931.21985	1089.81677	181.00479	2115.08740	
2298	9.571	1253.29065	224.29854	2008.10205	1192.32434	228.72301	2006.06201	1138.12524	220.14287	2012.48975	1220.67065	218.34518	1984.13428	1196.72888	202.94580	1962.50427	1238.44800	192.18855	1959.49609	1254.26257	169.69972	1963.81531	1225.31628	218.83427	2029.87390	1210.10962	214.31497	2053.72510	1247.52698	197.80382	2048.03784	1269.96155	165.35268	2052.72290	1044.39856	137.12508	2018.64429	1099.98267	157.24785	1932.54187	1105.24609	176.51169	2113.75098	
2299	9.575	1269.11023	221.85451	2006.99963	1208.47778	226.18086	2005.28516	1153.85315	217.59908	2011.91113	1236.26978	216.12526	1983.19348	1208.79810	204.53929	1961.81140	1251.11829	197.01602	1956.20020	1266.75635	174.31796	1960.86768	1240.87488	216.83200	2028.89392	1221.96729	216.15292	2052.95630	1260.71570	203.54959	2048.24683	1282.09021	169.60532	2051.42676	1060.40173	134.57800	2019.02576	1114.47778	152.34477	1933.74683	1120.25476	171.67795	2111.95435	
2300	9.579	1285.09436	219.23773	2005.92590	1224.80798	223.20006	2004.65125	1169.77222	214.91594	2011.36182	1251.95801	213.56834	1982.48389	1221.20349	207.32474	1961.79382	1263.12524	202.33167	1951.50366	1276.86511	178.35736	1954.54956	1256.49902	214.55928	2027.76355	1233.58508	219.03577	2051.14941	1273.62756	210.17012	2050.13086	1292.30005	175.15819	2054.41138	1076.58789	131.67972	2018.77734	1128.54395	148.52837	1934.62036	1134.72180	167.48820	2109.92578	
2301	9.583	1301.14661	216.46849	2004.86890	1241.19080	219.90524	2004.12891	1185.85229	212.06306	2010.79419	1267.74622	210.82016	1981.98584	1234.33301	210.73250	1962.97400	1274.74048	208.13815	1946.83521	1284.25220	182.27037	1946.40747	1272.21716	212.21689	2026.33630	1245.60193	222.22264	2047.48267	1286.19568	217.42717	2052.45166	1300.23755	181.94734	2060.58936	1092.93237	128.37152	2017.94287	1142.46643	145.98138	1934.81616	1148.92761	164.51900	2108.02075	
2302	9.587	1317.11841	213.59312	2003.83325	1257.59668	216.52025	2003.60022	1202.03442	209.00131	2010.16797	1283.65100	208.02422	1981.61230	1248.27380	214.05899	1965.60352	1286.16296	214.37137	1943.62305	1288.94519	187.38223	1938.29346	1288.07983	210.15460	2024.47913	1258.53198	224.96527	2041.73096	1298.08923	224.97791	2053.74170	1305.79712	190.51738	2068.08667	1109.25928	124.85863	2016.62585	1156.89160	144.67412	1933.96460	1163.51514	162.78047	2106.62695	
2303	9.592	1332.93652	210.63545	2002.81836	1274.05115	213.24414	2002.90051	1218.19226	205.70418	2009.45862	1299.63110	205.19914	1981.27234	1262.95447	216.58241	1969.52917	1297.67249	220.68553	1942.73511	1291.95129	194.98447	1932.24207	1303.95593	208.36459	2022.23999	1272.54175	226.64870	2034.42456	1309.27661	232.26616	2052.73877	1309.48718	201.67046	2074.37305	1125.28320	121.49200	2014.96594	1172.44214	144.45161	1931.84705	1179.11719	161.97784	2106.00391	
2304	9.596	1348.66870	207.58067	2001.84497	1290.52466	210.16478	2001.90979	1234.19836	202.14812	2008.68884	1315.61011	202.32941	1980.83911	1278.27795	217.69026	1974.09473	1309.60034	226.49725	1944.14673	1295.24280	205.45375	1929.65393	1319.52710	206.29309	2020.03223	1287.44788	226.87726	2026.58911	1320.27405	238.59502	2049.13843	1312.42798	215.78644	2076.98096	1140.72742	118.57749	2013.11523	1189.40430	145.14243	1928.56555	1195.98499	161.94383	2106.22363	
2305	9.600	1364.43445	204.43303	2000.96924	1306.82983	207.12155	2000.71899	1250.04431	198.32216	2007.95056	1331.51917	199.38800	1980.17114	1294.21448	217.22391	1978.31079	1322.12280	231.27248	1946.89844	1300.83521	218.06558	1930.55334	1334.73499	203.58026	2018.19263	1302.92432	225.53958	2019.25928	1331.76880	243.39726	2043.87195	1316.11890	232.11107	2074.36035	1155.42859	116.28176	2011.13306	1207.63257	146.46828	1924.58496	1213.93823	162.66599	2107.13037	
2306	9.604	1380.23596	201.21507	2000.17896	1322.77710	203.85579	1999.54797	1265.76758	194.26244	2007.40405	1347.27112	196.27054	1979.25391	1310.78711	215.65994	1981.22986	1335.20020	234.75990	1949.42224	1309.88708	231.31029	1933.84509	1349.91772	200.43178	2016.77478	1318.77087	222.89854	2013.28040	1344.16309	246.56581	2038.56042	1322.22729	248.76056	2066.72607	1169.43896	114.61301	2008.95020	1226.64111	147.84122	1920.55188	1232.55579	163.90137	2108.33057	
2307	9.608	1395.98376	197.91876	1999.37988	1338.33325	200.28035	1998.55872	1281.37073	190.04434	2007.08789	1362.83667	192.93709	1978.12341	1328.05688	213.76407	1982.19763	1348.62927	236.79904	1950.28772	1322.51733	243.28889	1937.86438	1365.31091	197.03665	2015.80176	1335.03979	219.60849	2009.22119	1357.45459	248.32056	2034.73047	1332.04016	263.49161	2056.44312	1182.98535	113.42446	2006.53003	1245.69617	148.48012	1917.04993	1251.27795	164.93684	2109.32642	
